<svg id="exportSVG" visibility="visible" xmlns="http://www.w3.org/2000/svg" xmlns:xlink="http://www.w3.org/1999/xlink" version="1.1" data-info="draw.ninja" data-name="hero" viewBox="0 0 638 60" width="638" height="60" style="position: fixed; top: 0px; left: 0px;"><defs id="defsExport"><filter id="filter0"><feGaussianBlur stdDeviation="0"></feGaussianBlur></filter><pattern id="patternImage" patternUnits="userSpaceOnUse" x="0" y="0" width="1" height="1" data-x="0" data-y="0" data-width="1" data-height="1" data-multx="1" data-multy="1" patternTransform="matrix(1,0,0,1,0,0)" data-transs="0" data-transf="0" data-source="patternImage" data-draw="1" fill="#B3B3B3" fill-opacity="1"></pattern><pattern id="pattern0" patternUnits="userSpaceOnUse" x="0" y="0" width="10" height="10" data-x="0" data-y="0" data-width="10" data-height="10" data-multx="1" data-multy="1" stroke="none" patternTransform="matrix(1,0,0,1,0,0)" data-transs="0" data-transf="0" data-source="Pattern 0" data-draw="1" fill="#B3B3B3" fill-opacity="1"><path transform="matrix(1,0,0,1,0,0)" d="M0 0 L5 0 L5 5 L0 5 L0 0 Z"></path></pattern><pattern id="pattern1" patternUnits="userSpaceOnUse" x="0" y="0" width="10" height="10" data-x="0" data-y="0" data-width="10" data-height="10" data-multx="1" data-multy="1" stroke="none" patternTransform="matrix(1,0,0,1,0,0)" data-transs="0" data-transf="0" data-source="Pattern 1" data-draw="1" fill="#B3B3B3" fill-opacity="1"><path transform="matrix(1,0,0,1,0,0)" d="M0 5 L5 0 L10 5 L5 10 L0 5 Z"></path></pattern><pattern id="pattern2" patternUnits="userSpaceOnUse" x="0" y="0" width="10" height="10" data-x="0" data-y="0" data-width="10" data-height="10" data-multx="1" data-multy="1" stroke="none" patternTransform="matrix(1,0,0,1,0,0)" data-transs="0" data-transf="0" data-source="Pattern 2" data-draw="1" fill="#B3B3B3" fill-opacity="1"><path transform="matrix(1,0,0,1,0,0)" d="M0 9 L5 1 L10 9 L0 9 Z"></path></pattern><pattern id="pattern3" patternUnits="userSpaceOnUse" x="0" y="0" width="10" height="10" data-x="0" data-y="0" data-width="10" data-height="10" data-multx="1" data-multy="1" stroke="none" patternTransform="matrix(1,0,0,1,0,0)" data-transs="0" data-transf="0" data-source="Pattern 3" data-draw="1" fill="#B3B3B3" fill-opacity="1"><path transform="matrix(1,0,0,1,0,0)" d="M0 5 C0 2.25 2.25 0 5 0 C7.75 0 10 2.25 10 5 C10 7.75 7.75 10 5 10 C2.25 10 0 7.75 0 5 Z"></path></pattern><pattern id="pattern4" patternUnits="userSpaceOnUse" x="0" y="0" width="10" height="10" data-x="0" data-y="0" data-width="10" data-height="10" data-multx="1" data-multy="1" stroke="none" patternTransform="matrix(1,0,0,1,0,0)" data-transs="0" data-transf="0" data-source="Pattern 4" data-draw="1" fill="#B3B3B3" fill-opacity="1"><path transform="matrix(1,0,0,1,0,0)" d="M0 5 L4 4 L5 0 L6 4 L10 5 L6 6 L5 10 L4 6 L0 5 Z"></path></pattern><pattern id="pattern5" patternUnits="userSpaceOnUse" x="0" y="0" width="10" height="10" data-x="0" data-y="0" data-width="10" data-height="10" data-multx="1" data-multy="1" stroke="none" patternTransform="matrix(1,0,0,1,0,0)" data-transs="0" data-transf="0" data-source="Pattern 5" data-draw="1" fill="#B3B3B3" fill-opacity="1"><path transform="matrix(1,0,0,1,0,0)" d="M5 10 C-5 2.75 3 -1.75 5 1 C7 -1.75 15 2.75 5 10 Z"></path></pattern><pattern id="pattern6" patternUnits="userSpaceOnUse" x="0" y="0" width="10" height="10" data-x="0" data-y="0" data-width="10" data-height="10" data-multx="1" data-multy="1" stroke="none" patternTransform="matrix(1,0,0,1,0,0)" data-transs="0" data-transf="0" data-source="Pattern 6" data-draw="1" fill="#B3B3B3" fill-opacity="1"><path transform="matrix(1,0,0,1,0,0)" d="M3 0 L7 0 L7 10 L3 10 L3 0 Z"></path></pattern><pattern id="pattern7" patternUnits="userSpaceOnUse" x="0" y="0" width="10" height="10" data-x="0" data-y="0" data-width="10" data-height="10" data-multx="1" data-multy="1" stroke="none" patternTransform="matrix(1,0,0,1,0,0)" data-transs="0" data-transf="0" data-source="Pattern 7" data-draw="1" fill="#B3B3B3" fill-opacity="1"><path transform="matrix(1,0,0,1,0,0)" d="M10 3 L10 7 L0 7 L0 3 L10 3 Z"></path></pattern><pattern id="pattern8" patternUnits="userSpaceOnUse" x="0" y="0" width="10" height="10" data-x="0" data-y="0" data-width="10" data-height="10" data-multx="1" data-multy="1" stroke="none" patternTransform="matrix(1,0,0,1,0,0)" data-transs="0" data-transf="0" data-source="Pattern 8" data-draw="1" fill="#B3B3B3" fill-opacity="1"><path transform="matrix(1,0,0,1,0,0)" d="M0 10 L3 3 L10 0 L7 7 L0 10 Z"></path></pattern><pattern id="pattern9" patternUnits="userSpaceOnUse" x="0" y="0" width="10" height="10" data-x="0" data-y="0" data-width="10" data-height="10" data-multx="1" data-multy="1" stroke="none" patternTransform="matrix(1,0,0,1,0,0)" data-transs="0" data-transf="0" data-source="Pattern 9" data-draw="1" fill="#B3B3B3" fill-opacity="1"><path transform="matrix(1,0,0,1,0,0)" d="M0 4 L10 4 L10 6 L0 6 L0 4 Z M4 10 L4 0 L6 0 L6 10 L4 10 Z"></path></pattern><linearGradient id="linearSystem" gradientUnits="objectBoundingBox" x1="0%" y1="50%" x2="100%" y2="50%" spreadMethod="pad"><stop offset="50%" stop-color="#D0D0D0" stop-opacity="1"></stop><stop offset="100%" stop-color="transparent" stop-opacity="1"></stop></linearGradient><linearGradient id="linearSystem1" gradientUnits="objectBoundingBox" x1="0%" y1="50%" x2="100%" y2="50%" spreadMethod="pad"><stop offset="30%" stop-color="#D0D0D0" stop-opacity="1"></stop><stop offset="100%" stop-color="transparent" stop-opacity="1"></stop></linearGradient><linearGradient id="linearSystem2" gradientUnits="objectBoundingBox" x1="0%" y1="50%" x2="50%" y2="50%" spreadMethod="repeat"><stop offset="30%" stop-color="#D0D0D0" stop-opacity="1"></stop><stop offset="100%" stop-color="transparent" stop-opacity="1"></stop></linearGradient><linearGradient id="linearSystem3" gradientUnits="objectBoundingBox" x1="0%" y1="50%" x2="50%" y2="50%" spreadMethod="reflect"><stop offset="30%" stop-color="#D0D0D0" stop-opacity="1"></stop><stop offset="100%" stop-color="transparent" stop-opacity="1"></stop></linearGradient><radialGradient id="radialSystem" gradientUnits="objectBoundingBox" r="0.5" cx="0.5" fx="0.5" cy="0.5" fy="0.5" spreadMethod="pad"><stop offset="50%" stop-color="#D0D0D0" stop-opacity="1"></stop><stop offset="100%" stop-color="transparent" stop-opacity="1"></stop></radialGradient><pattern id="patternSystem" patternUnits="userSpaceOnUse" x="0" y="0" width="6" height="8"><path stroke="#D0D0D0" stroke-width="5" fill="none" d="M0 0 L0 10"></path></pattern><linearGradient id="linear0" gradientUnits="objectBoundingBox" x1="0%" y1="50%" x2="100%" y2="50%" spreadMethod="pad"><stop offset="0%" stop-color="#FF8000" stop-opacity="1"></stop><stop offset="100%" stop-color="#FFFF00" stop-opacity="1"></stop></linearGradient><linearGradient id="linear1" gradientUnits="objectBoundingBox" x1="0%" y1="50%" x2="100%" y2="50%" spreadMethod="pad"><stop offset="0%" stop-color="#FFFF00" stop-opacity="1"></stop><stop offset="100%" stop-color="#FF8000" stop-opacity="1"></stop></linearGradient><linearGradient id="linearImport" gradientUnits="objectBoundingBox" x1="0%" y1="50%" x2="100%" y2="50%" spreadMethod="pad"><stop offset="0%" stop-color="#FFFFFF" stop-opacity="0.1"></stop><stop offset="100%" stop-color="#000000" stop-opacity="0.1"></stop></linearGradient><radialGradient id="radial0" gradientUnits="objectBoundingBox" r="0.5" cx="0.5" fx="0.5" cy="0.5" fy="0.5" spreadMethod="pad"><stop offset="0%" stop-color="#FF8000" stop-opacity="1"></stop><stop offset="100%" stop-color="#FFFF00" stop-opacity="1"></stop></radialGradient><radialGradient id="radial1" gradientUnits="objectBoundingBox" r="0.5" cx="0.5" fx="0.5" cy="0.5" fy="0.5" spreadMethod="pad"><stop offset="0%" stop-color="#FFFF00" stop-opacity="1"></stop><stop offset="100%" stop-color="#FF8000" stop-opacity="1"></stop></radialGradient><radialGradient id="radialImport" gradientUnits="objectBoundingBox" r="0.5" cx="0.5" fx="0.5" cy="0.5" fy="0.5" spreadMethod="pad"><stop offset="0%" stop-color="#FFFFFF" stop-opacity="0.1"></stop><stop offset="100%" stop-color="#000000" stop-opacity="0.1"></stop></radialGradient></defs><rect id="pageExport" x="0" y="0" width="638" height="60" fill="none" fill-opacity="0" stroke="none" stroke-width="0"></rect><g id="objectsExport" visibility="visible"><g id="group18" visibility="hidden" stroke="#000000" stroke-width="2" stroke-opacity="1" stroke-dasharray="none" fill="none" fill-opacity="1" data-name="group" data-title="group" deg="0" data-edit="1" data-centerx="318.89" data-centery="29.79"><path id="path0" d="M27.312 27.719 C28.73 29.519 29.486 31.753 29.45 34.044 C29.45 38.426 27.972 41.681 25.017 43.808 C21.805 46.016 17.969 47.135 14.074 47.002 C14.074 47.002 0 47.002 0 47.002 C0 47.002 0 1.866 0 1.866 C0 1.866 12.342 1.866 12.342 1.866 C17.054 1.866 20.712 2.827 23.317 4.748 C25.922 6.669 27.223 9.49 27.222 13.211 C27.278 15.347 26.753 17.458 25.703 19.319 C24.666 21.058 23.177 22.483 21.394 23.442 C23.707 24.325 25.748 25.8 27.312 27.719 Z M7.254 21.085 L13.516 21.085 C15.266 21.211 16.982 20.551 18.197 19.285 C19.273 18.028 19.837 16.412 19.778 14.759 C19.899 13.054 19.196 11.394 17.887 10.295 C16.359 9.222 14.512 8.697 12.648 8.807 C12.648 8.807 7.254 8.807 7.254 8.807 C7.254 8.807 7.254 21.085 7.254 21.085 Z M19.716 38.724 C21.236 37.691 22.106 35.94 22.01 34.105 C22.143 32.2 21.165 30.39 19.5 29.456 C17.582 28.447 15.434 27.956 13.268 28.03 C13.268 28.03 7.254 28.03 7.254 28.03 C7.254 28.03 7.254 40.306 7.254 40.306 C7.254 40.306 13.764 40.306 13.764 40.306 C15.863 40.4 17.941 39.848 19.716 38.724 Z " data-centerx="-465.274" data-centery="-295.566" stroke="none" stroke-width="0" data-sw="0" stroke-opacity="1" stroke-linecap="round" stroke-linejoin="round" fill="#2e5180" fill-opacity="1" fill-rule="evenodd" filter="none" visibility="hidden" stroke-dasharray="none" marker-start="none" marker-end="none" data-name="curve" data-title="curve" deg="0" data-grad="0" data-group="group18" data-edit="1"></path><path id="path1" d="M66.371 27.719 C67.79 29.519 68.546 31.752 68.51 34.044 C68.51 38.426 67.032 41.681 64.077 43.808 C60.865 46.015 57.029 47.135 53.134 47.002 C53.134 47.002 39.06 47.002 39.06 47.002 C39.06 47.002 39.06 1.866 39.06 1.866 C39.06 1.866 51.398 1.866 51.398 1.866 C56.11 1.866 59.768 2.827 62.372 4.748 C64.976 6.669 66.278 9.49 66.278 13.211 C66.334 15.347 65.809 17.458 64.759 19.319 C63.722 21.058 62.233 22.483 60.45 23.442 C62.764 24.324 64.806 25.799 66.371 27.719 Z M46.314 21.085 L52.576 21.085 C54.326 21.211 56.042 20.551 57.257 19.285 C58.333 18.028 58.897 16.412 58.838 14.759 C58.959 13.054 58.256 11.394 56.947 10.295 C55.419 9.222 53.572 8.697 51.708 8.807 C51.708 8.807 46.314 8.807 46.314 8.807 C46.314 8.807 46.314 21.085 46.314 21.085 Z M58.776 38.724 C60.296 37.691 61.166 35.94 61.07 34.105 C61.203 32.2 60.225 30.39 58.559 29.456 C56.641 28.447 54.494 27.956 52.328 28.03 C52.328 28.03 46.314 28.03 46.314 28.03 C46.314 28.03 46.314 40.306 46.314 40.306 C46.314 40.306 52.824 40.306 52.824 40.306 C54.923 40.4 57 39.848 58.776 38.724 Z " data-centerx="-426.214" data-centery="-295.566" stroke="none" stroke-width="0" data-sw="0" stroke-opacity="1" stroke-linecap="round" stroke-linejoin="round" fill="#2e5180" fill-opacity="1" fill-rule="evenodd" filter="none" visibility="hidden" stroke-dasharray="none" marker-start="none" marker-end="none" data-name="curve" data-title="curve" deg="0" data-grad="0" data-group="group18" data-edit="1"></path><path id="path2" d="M121.142 36.4 L104.712 36.4 L100.372 47 L93.242 47 L113.206 0 L113.641 0 L133.604 47 L125.296 47 M118.725 30.2 L113.082 15.94 L107.254 30.2 " data-centerx="-366.577" data-centery="-296.505" stroke="none" stroke-width="0" data-sw="0" stroke-opacity="1" stroke-linecap="round" stroke-linejoin="round" fill="#2e5180" fill-opacity="1" fill-rule="evenodd" filter="none" visibility="hidden" stroke-dasharray="none" marker-start="none" marker-end="none" data-name="curve" data-title="curve" deg="0" data-grad="0" data-group="group18" data-edit="1"></path><path id="path3" d="M142.009 46.474 C140.308 45.82 138.788 44.768 137.576 43.406 C137.576 43.406 140.49 39.5 140.49 39.5 C142.68 41.649 144.913 42.723 147.19 42.724 C148.258 42.765 149.318 42.519 150.259 42.011 C151.036 41.586 151.505 40.757 151.468 39.872 C151.509 38.954 151.029 38.091 150.228 37.64 C149.361 37.126 148.434 36.72 147.469 36.431 C146.455 36.121 145.804 35.925 145.516 35.842 C143.559 35.335 141.792 34.269 140.432 32.773 C139.321 31.445 138.727 29.761 138.758 28.03 C138.732 25.013 140.428 22.245 143.129 20.9 C144.792 20.07 146.634 19.664 148.492 19.721 C150.242 19.689 151.987 19.919 153.669 20.404 C155.163 20.873 156.56 21.608 157.792 22.574 C157.792 22.574 155.126 26.727 155.126 26.727 C154.342 26 153.425 25.432 152.426 25.053 C151.512 24.669 150.534 24.459 149.543 24.433 C148.598 24.396 147.665 24.656 146.876 25.177 C145.469 26.165 145.469 28.251 146.876 29.239 C148.012 29.885 149.22 30.395 150.476 30.758 C151.178 30.965 151.633 31.109 151.84 31.192 C153.652 31.705 155.312 32.652 156.676 33.951 C157.858 35.191 158.484 36.859 158.412 38.57 C158.465 41.008 157.459 43.349 155.653 44.987 C153.813 46.702 151.18 47.559 147.753 47.559 C145.786 47.572 143.836 47.203 142.009 46.474 Z " data-centerx="-332.003" data-centery="-286.367" stroke="none" stroke-width="0" data-sw="0" stroke-opacity="1" stroke-linecap="round" stroke-linejoin="round" fill="#2e5180" fill-opacity="1" fill-rule="evenodd" filter="none" visibility="hidden" stroke-dasharray="none" marker-start="none" marker-end="none" data-name="curve" data-title="curve" deg="0" data-grad="0" data-group="group18" data-edit="1"></path><path id="path4" d="M168.234 46.474 C166.533 45.819 165.013 44.767 163.801 43.406 C163.801 43.406 166.715 39.5 166.715 39.5 C168.906 41.649 171.14 42.723 173.415 42.724 C174.483 42.765 175.543 42.519 176.484 42.011 C177.262 41.587 177.73 40.757 177.693 39.872 C177.734 38.954 177.254 38.091 176.453 37.64 C175.586 37.126 174.66 36.72 173.694 36.431 C172.681 36.121 172.03 35.925 171.741 35.842 C169.784 35.335 168.017 34.268 166.657 32.773 C165.546 31.445 164.952 29.761 164.983 28.03 C164.957 25.013 166.653 22.245 169.354 20.9 C171.017 20.07 172.859 19.665 174.717 19.721 C176.467 19.689 178.212 19.919 179.894 20.404 C181.388 20.873 182.785 21.608 184.017 22.574 C184.017 22.574 181.351 26.727 181.351 26.727 C180.567 26 179.651 25.432 178.651 25.053 C177.737 24.669 176.759 24.459 175.768 24.433 C174.823 24.396 173.891 24.656 173.102 25.177 C171.694 26.165 171.694 28.251 173.102 29.239 C174.238 29.885 175.446 30.395 176.702 30.758 C177.404 30.965 177.859 31.109 178.067 31.192 C179.879 31.706 181.538 32.653 182.902 33.951 C184.084 35.191 184.71 36.859 184.638 38.57 C184.692 41.008 183.685 43.348 181.88 44.987 C180.04 46.702 177.405 47.559 173.974 47.559 C172.009 47.571 170.059 47.203 168.234 46.474 Z " data-centerx="-305.778" data-centery="-286.367" stroke="none" stroke-width="0" data-sw="0" stroke-opacity="1" stroke-linecap="round" stroke-linejoin="round" fill="#2e5180" fill-opacity="1" fill-rule="evenodd" filter="none" visibility="hidden" stroke-dasharray="none" marker-start="none" marker-end="none" data-name="curve" data-title="curve" deg="0" data-grad="0" data-group="group18" data-edit="1"></path><path id="path5" d="M193.25 8.779 C194.012 8.081 195.008 7.694 196.042 7.694 C197.047 7.698 198.013 8.086 198.742 8.779 C199.517 9.434 199.96 10.399 199.951 11.413 C199.963 12.418 199.518 13.374 198.742 14.013 C198.006 14.69 197.042 15.066 196.042 15.068 C195.014 15.071 194.02 14.695 193.251 14.013 C192.459 13.384 192.002 12.424 192.011 11.413 C192.004 10.393 192.46 9.424 193.25 8.779 Z M199.264 20.779 L199.264 47.005 L192.32 47.005 L192.32 20.776 " data-centerx="-284.019" data-centery="-292.655" stroke="none" stroke-width="0" data-sw="0" stroke-opacity="1" stroke-linecap="round" stroke-linejoin="round" fill="#2e5180" fill-opacity="1" fill-rule="evenodd" filter="none" visibility="hidden" stroke-dasharray="none" marker-start="none" marker-end="none" data-name="curve" data-title="curve" deg="0" data-grad="0" data-group="group18" data-edit="1"></path><path id="path6" d="M210.951 46.474 C209.25 45.819 207.73 44.767 206.518 43.406 C206.518 43.406 209.432 39.5 209.432 39.5 C211.623 41.649 213.856 42.723 216.132 42.724 C217.2 42.765 218.26 42.519 219.201 42.011 C219.978 41.586 220.447 40.757 220.41 39.872 C220.451 38.954 219.971 38.091 219.17 37.64 C218.303 37.126 217.377 36.72 216.411 36.431 C215.398 36.121 214.747 35.925 214.458 35.842 C212.501 35.335 210.734 34.268 209.374 32.773 C208.263 31.445 207.669 29.761 207.7 28.03 C207.674 25.013 209.37 22.245 212.071 20.9 C213.734 20.07 215.576 19.665 217.434 19.721 C219.184 19.689 220.929 19.919 222.611 20.404 C224.105 20.873 225.502 21.608 226.734 22.574 C226.734 22.574 224.068 26.727 224.068 26.727 C223.284 26 222.367 25.432 221.368 25.053 C220.454 24.669 219.476 24.459 218.485 24.433 C217.54 24.396 216.608 24.656 215.819 25.177 C214.411 26.165 214.411 28.251 215.819 29.239 C216.955 29.885 218.163 30.395 219.419 30.758 C220.121 30.965 220.576 31.109 220.783 31.192 C222.595 31.705 224.255 32.652 225.619 33.951 C226.801 35.191 227.427 36.859 227.355 38.57 C227.409 41.008 226.402 43.349 224.596 44.987 C222.756 46.702 220.121 47.559 216.691 47.559 C214.726 47.571 212.776 47.203 210.951 46.474 Z " data-centerx="-263.061" data-centery="-286.367" stroke="none" stroke-width="0" data-sw="0" stroke-opacity="1" stroke-linecap="round" stroke-linejoin="round" fill="#2e5180" fill-opacity="1" fill-rule="evenodd" filter="none" visibility="hidden" stroke-dasharray="none" marker-start="none" marker-end="none" data-name="curve" data-title="curve" deg="0" data-grad="0" data-group="group18" data-edit="1"></path><path id="path7" d="M244.523 9.245 L244.523 20.777 L251.343 20.777 L251.343 26.233 L244.523 26.233 L244.523 47.003 L237.579 47.003 L237.579 26.233 L233.053 26.233 L233.053 20.777 L237.579 20.777 L237.579 9.245 " data-centerx="-237.802" data-centery="-291.881" stroke="none" stroke-width="0" data-sw="0" stroke-opacity="1" stroke-linecap="round" stroke-linejoin="round" fill="#2e5180" fill-opacity="1" fill-rule="evenodd" filter="none" visibility="hidden" stroke-dasharray="none" marker-start="none" marker-end="none" data-name="curve" data-title="curve" deg="0" data-grad="0" data-group="group18" data-edit="1"></path><path id="path8" d="M285.628 20.776 L285.628 47.002 L278.684 47.002 C277.587 44.454 276.287 45.492 274.84 46.289 C273.117 47.247 271.169 47.728 269.198 47.683 C266.849 47.724 264.527 47.181 262.44 46.102 C260.444 45.038 258.806 43.41 257.728 41.422 C256.512 39.113 255.914 36.53 255.992 33.922 C255.937 31.298 256.557 28.704 257.792 26.388 C258.904 24.308 260.564 22.571 262.592 21.367 C264.591 20.19 266.872 19.579 269.192 19.599 C273.449 19.599 276.632 21.17 278.74 24.311 C278.74 24.311 279.24 20.778 279.24 20.778 C279.24 20.778 285.628 20.776 285.628 20.776 Z M275.928 40.523 C277.274 39.488 278.243 38.039 278.687 36.4 C278.687 36.4 278.687 30.7 278.687 30.7 C278.203 29.105 277.185 27.725 275.804 26.793 C274.357 25.794 272.633 25.274 270.875 25.305 C268.772 25.269 266.75 26.111 265.295 27.63 C263.755 29.208 262.926 31.348 263.001 33.552 C262.971 36.544 264.528 39.327 267.093 40.868 C268.308 41.605 269.702 41.991 271.123 41.983 C272.841 42.038 274.529 41.525 275.925 40.523 C275.925 40.523 275.928 40.523 275.928 40.523 Z " data-centerx="-209.193" data-centery="-286.363" stroke="none" stroke-width="0" data-sw="0" stroke-opacity="1" stroke-linecap="round" stroke-linejoin="round" fill="#2e5180" fill-opacity="1" fill-rule="evenodd" filter="none" visibility="hidden" stroke-dasharray="none" marker-start="none" marker-end="none" data-name="curve" data-title="curve" deg="0" data-grad="0" data-group="group18" data-edit="1"></path><path id="path9" d="M318.457 21.861 C320.076 23.299 320.992 25.369 320.968 27.534 C320.968 27.534 320.968 47.002 320.968 47.002 C320.968 47.002 314.024 47.002 314.024 47.002 C314.024 47.002 314.024 30.014 314.024 30.014 C314.01 28.831 313.582 27.69 312.815 26.789 C311.947 25.945 310.769 25.497 309.56 25.549 C307.445 25.532 305.459 26.565 304.26 28.308 C302.81 30.36 302.079 32.835 302.183 35.346 C302.183 35.346 302.183 47.002 302.183 47.002 C302.183 47.002 295.242 47.002 295.242 47.002 C295.242 47.002 295.242 20.776 295.242 20.776 C295.242 20.776 301.504 20.776 301.504 20.776 C301.504 20.776 302.004 25.425 302.004 25.425 C302.929 23.633 304.364 22.156 306.127 21.178 C308.036 20.138 310.184 19.615 312.358 19.66 C314.597 19.591 316.778 20.378 318.457 21.861 Z " data-centerx="-171.895" data-centery="-286.676" stroke="none" stroke-width="0" data-sw="0" stroke-opacity="1" stroke-linecap="round" stroke-linejoin="round" fill="#2e5180" fill-opacity="1" fill-rule="evenodd" filter="none" visibility="hidden" stroke-dasharray="none" marker-start="none" marker-end="none" data-name="curve" data-title="curve" deg="0" data-grad="0" data-group="group18" data-edit="1"></path><path id="path10" d="M340.001 9.245 L340.001 20.777 L346.821 20.777 L346.821 26.233 L340.001 26.233 L340.001 47.003 L333.057 47.003 L333.057 26.233 L328.531 26.233 L328.531 20.777 L333.057 20.777 L333.057 9.245 " data-centerx="-142.324" data-centery="-291.881" stroke="none" stroke-width="0" data-sw="0" stroke-opacity="1" stroke-linecap="round" stroke-linejoin="round" fill="#2e5180" fill-opacity="1" fill-rule="evenodd" filter="none" visibility="hidden" stroke-dasharray="none" marker-start="none" marker-end="none" data-name="curve" data-title="curve" deg="0" data-grad="0" data-group="group18" data-edit="1"></path><path id="path11" d="M402.898 46.196 C400.444 47.083 397.851 47.524 395.241 47.496 C390.958 47.594 386.727 46.534 382.997 44.427 C379.598 42.478 376.808 39.623 374.937 36.181 C373.046 32.689 372.075 28.774 372.116 24.803 C372.044 20.602 373.013 16.448 374.937 12.713 C376.729 9.251 379.458 6.362 382.811 4.374 C386.297 2.339 390.275 1.299 394.311 1.368 C396.799 1.345 399.276 1.7 401.658 2.421 C403.756 3.055 405.766 3.951 407.641 5.087 C407.641 5.087 404.789 11.845 404.789 11.845 C401.834 9.623 398.255 8.387 394.559 8.311 C391.936 8.305 389.365 9.047 387.149 10.451 C384.846 11.886 382.956 13.894 381.662 16.279 C380.295 18.754 379.59 21.541 379.617 24.369 C379.568 27.261 380.217 30.121 381.508 32.709 C382.713 35.11 384.586 37.112 386.901 38.474 C389.358 39.892 392.156 40.61 394.992 40.552 C397.01 40.582 399.016 40.246 400.914 39.559 C402.53 38.98 404.031 38.119 405.347 37.017 C405.347 37.017 408.385 43.466 408.385 43.466 C406.682 44.61 404.837 45.527 402.898 46.196 Z " data-centerx="-89.751" data-centery="-295.571" stroke="none" stroke-width="0" data-sw="0" stroke-opacity="1" stroke-linecap="round" stroke-linejoin="round" fill="#2e5180" fill-opacity="1" fill-rule="evenodd" filter="none" visibility="hidden" stroke-dasharray="none" marker-start="none" marker-end="none" data-name="curve" data-title="curve" deg="0" data-grad="0" data-group="group18" data-edit="1"></path><path id="path12" d="M416.29 26.479 C417.536 24.344 419.349 22.595 421.528 21.426 C423.874 20.179 426.499 19.55 429.155 19.597 C431.801 19.547 434.416 20.177 436.75 21.426 C438.896 22.583 440.669 24.324 441.864 26.449 C444.263 30.921 444.263 36.298 441.864 40.77 C440.665 42.899 438.893 44.65 436.75 45.824 C434.402 47.097 431.763 47.738 429.093 47.683 C426.471 47.726 423.878 47.142 421.528 45.978 C419.344 44.887 417.524 43.184 416.29 41.078 C414.991 38.806 414.338 36.223 414.399 33.607 C414.372 31.104 415.026 28.64 416.29 26.479 Z M423.575 39.593 C424.933 41.145 426.907 42.018 428.969 41.979 C431.056 42.042 433.064 41.18 434.456 39.624 C435.906 37.988 436.672 35.857 436.595 33.672 C436.668 31.478 435.904 29.338 434.456 27.688 C433.073 26.116 431.062 25.241 428.969 25.301 C426.895 25.267 424.915 26.166 423.575 27.75 C422.13 29.379 421.354 31.495 421.405 33.672 C421.339 35.851 422.117 37.972 423.575 39.593 Z " data-centerx="-50.971" data-centery="-286.365" stroke="none" stroke-width="0" data-sw="0" stroke-opacity="1" stroke-linecap="round" stroke-linejoin="round" fill="#2e5180" fill-opacity="1" fill-rule="evenodd" filter="none" visibility="hidden" stroke-dasharray="none" marker-start="none" marker-end="none" data-name="curve" data-title="curve" deg="0" data-grad="0" data-group="group18" data-edit="1"></path><path id="path13" d="M491.124 21.767 C492.655 23.268 493.515 25.323 493.511 27.467 C493.511 27.467 493.511 46.998 493.511 46.998 C493.511 46.998 486.628 46.998 486.628 46.998 C486.628 46.998 486.628 30.138 486.628 30.138 C486.622 28.988 486.3 27.862 485.698 26.882 C485.057 26.065 484.07 25.595 483.032 25.612 C480.911 25.595 478.936 26.689 477.825 28.495 C476.481 30.48 475.768 32.825 475.778 35.222 C475.778 35.222 475.778 47.002 475.778 47.002 C475.778 47.002 468.772 47.002 468.772 47.002 C468.772 47.002 468.772 30.138 468.772 30.138 C468.758 28.995 468.426 27.878 467.812 26.913 C467.145 26.074 466.125 25.593 465.053 25.613 C463.688 25.598 462.365 26.083 461.333 26.976 C460.212 27.951 459.349 29.187 458.821 30.576 C458.223 32.053 457.918 33.632 457.921 35.226 C457.921 35.226 457.921 47.006 457.921 47.006 C457.921 47.006 450.977 47.006 450.977 47.006 C450.977 47.006 450.977 20.776 450.977 20.776 C450.977 20.776 457.239 20.776 457.239 20.776 C457.239 20.776 457.797 25.364 457.797 25.364 C458.71 23.586 460.107 22.103 461.827 21.085 C463.6 20.072 465.614 19.558 467.655 19.597 C469.521 19.533 471.364 20.02 472.955 20.997 C474.375 21.918 475.385 23.35 475.775 24.997 C476.792 23.358 478.198 21.995 479.867 21.029 C481.425 20.104 483.202 19.611 485.014 19.602 C487.257 19.484 489.455 20.263 491.124 21.767 Z " data-centerx="-7.756" data-centery="-286.707" stroke="none" stroke-width="0" data-sw="0" stroke-opacity="1" stroke-linecap="round" stroke-linejoin="round" fill="#2e5180" fill-opacity="1" fill-rule="evenodd" filter="none" visibility="hidden" stroke-dasharray="none" marker-start="none" marker-end="none" data-name="curve" data-title="curve" deg="0" data-grad="0" data-group="group18" data-edit="1"></path><path id="path14" d="M526.929 21.333 C528.925 22.503 530.54 24.226 531.579 26.293 C532.735 28.621 533.309 31.194 533.253 33.793 C533.311 36.371 532.68 38.919 531.424 41.171 C530.239 43.246 528.471 44.927 526.34 46.007 C524.061 47.148 521.541 47.722 518.993 47.68 C517.264 47.681 515.554 47.323 513.971 46.627 C512.449 45.99 511.092 45.015 510.003 43.775 C510.003 43.775 510.003 59.585 510.003 59.585 C510.003 59.585 503.059 59.585 503.059 59.585 C503.059 59.585 503.059 20.28 503.059 20.28 C503.059 20.28 509.073 20.28 509.073 20.28 C509.073 20.28 509.692 24.185 509.692 24.185 C511.052 22.784 512.661 21.649 514.436 20.837 C516.275 20.002 518.274 19.579 520.294 19.597 C522.622 19.568 524.914 20.168 526.929 21.333 Z M521.876 41.081 C523.153 40.381 524.231 39.368 525.007 38.136 C525.798 36.874 526.208 35.41 526.185 33.92 C526.259 31.673 525.42 29.492 523.86 27.874 C522.368 26.308 520.286 25.443 518.124 25.488 C516.305 25.427 514.513 25.948 513.01 26.975 C511.594 28.008 510.542 29.462 510.003 31.13 C510.003 31.13 510.003 36.4 510.003 36.4 C510.391 38.057 511.346 39.526 512.703 40.554 C514.114 41.638 515.853 42.207 517.632 42.166 C519.117 42.177 520.579 41.803 521.876 41.081 Z " data-centerx="38.158" data-centery="-280.415" stroke="none" stroke-width="0" data-sw="0" stroke-opacity="1" stroke-linecap="round" stroke-linejoin="round" fill="#2e5180" fill-opacity="1" fill-rule="evenodd" filter="none" visibility="hidden" stroke-dasharray="none" marker-start="none" marker-end="none" data-name="curve" data-title="curve" deg="0" data-grad="0" data-group="group18" data-edit="1"></path><path id="path15" d="M568.034 20.776 L568.034 47.002 L561.091 47.002 C559.993 44.454 558.693 45.492 557.247 46.289 C555.524 47.246 553.576 47.728 551.605 47.683 C549.256 47.724 546.934 47.181 544.847 46.102 C542.851 45.038 541.212 43.411 540.134 41.422 C538.919 39.113 538.321 36.53 538.398 33.922 C538.343 31.298 538.963 28.704 540.198 26.388 C541.31 24.308 542.97 22.571 544.998 21.367 C546.997 20.19 549.278 19.579 551.598 19.599 C555.854 19.599 559.036 21.17 561.145 24.311 C561.145 24.311 561.645 20.778 561.645 20.778 C561.645 20.778 568.034 20.776 568.034 20.776 Z M558.334 40.523 C559.681 39.488 560.65 38.039 561.094 36.4 C561.094 36.4 561.094 30.7 561.094 30.7 C560.611 29.105 559.592 27.725 558.211 26.793 C556.763 25.794 555.039 25.274 553.281 25.305 C551.178 25.269 549.156 26.112 547.701 27.63 C546.161 29.208 545.332 31.348 545.407 33.552 C545.378 36.544 546.935 39.327 549.5 40.868 C550.714 41.605 552.109 41.991 553.529 41.983 C555.247 42.038 556.935 41.525 558.331 40.523 C558.331 40.523 558.334 40.523 558.334 40.523 Z " data-centerx="73.213" data-centery="-286.363" stroke="none" stroke-width="0" data-sw="0" stroke-opacity="1" stroke-linecap="round" stroke-linejoin="round" fill="#2e5180" fill-opacity="1" fill-rule="evenodd" filter="none" visibility="hidden" stroke-dasharray="none" marker-start="none" marker-end="none" data-name="curve" data-title="curve" deg="0" data-grad="0" data-group="group18" data-edit="1"></path><path id="path16" d="M600.862 21.861 C602.482 23.298 603.399 25.368 603.374 27.534 C603.374 27.534 603.374 47.002 603.374 47.002 C603.374 47.002 596.43 47.002 596.43 47.002 C596.43 47.002 596.43 30.014 596.43 30.014 C596.416 28.831 595.989 27.69 595.221 26.789 C594.353 25.945 593.175 25.497 591.966 25.549 C589.851 25.531 587.865 26.565 586.666 28.308 C585.215 30.36 584.484 32.835 584.588 35.346 C584.588 35.346 584.588 47.002 584.588 47.002 C584.588 47.002 577.642 47.002 577.642 47.002 C577.642 47.002 577.642 20.776 577.642 20.776 C577.642 20.776 583.903 20.776 583.903 20.776 C583.903 20.776 584.403 25.425 584.403 25.425 C585.329 23.634 586.763 22.157 588.526 21.178 C590.436 20.138 592.584 19.615 594.758 19.66 C596.999 19.589 599.182 20.377 600.862 21.861 Z " data-centerx="110.508" data-centery="-286.676" stroke="none" stroke-width="0" data-sw="0" stroke-opacity="1" stroke-linecap="round" stroke-linejoin="round" fill="#2e5180" fill-opacity="1" fill-rule="evenodd" filter="none" visibility="hidden" stroke-dasharray="none" marker-start="none" marker-end="none" data-name="curve" data-title="curve" deg="0" data-grad="0" data-group="group18" data-edit="1"></path><path id="path17" d="M637.782 20.776 L620.856 59.588 L614.036 59.588 L620.175 45.888 L608.022 20.778 L615.835 20.778 L623.647 38.138 L631.459 20.778 " data-centerx="142.902" data-centery="-279.823" stroke="none" stroke-width="0" data-sw="0" stroke-opacity="1" stroke-linecap="round" stroke-linejoin="round" fill="#2e5180" fill-opacity="1" fill-rule="evenodd" filter="none" visibility="hidden" stroke-dasharray="none" marker-start="none" marker-end="none" data-name="curve" data-title="curve" deg="0" data-grad="0" data-group="group18" data-edit="1"></path></g><g id="group19" visibility="visible" stroke="#000000" stroke-width="NaN" stroke-opacity="1" stroke-dasharray="none" fill="none" fill-opacity="1" data-name="group" data-title="text" deg="0" data-edit="1" data-centerx="318.678" data-centery="29.932"><text id="text20" visibility="visible" font-family="Verdana" font-size="46" font-weight="bold" font-style="normal" transform="matrix(1.011,0,0,1.39,-1122.07,-479.989)" stroke="none" stroke-width="2" stroke-opacity="1" stroke-dasharray="none" fill="#2e5180" fill-opacity="1" data-name="text" data-title="text" deg="0" data-sw="2" data-group="group19" data-trans="translate(-480,-320) matrix(1.011,0,0,1.39,-642.07,-159.989)" data-edit="1" filter="none" x="1111" y="385" data-centerx="745.405" data-centery="64.078">N.E.E.T HOME SECURITY</text></g></g><g id="settings" visibility="hidden" data-dn0="primalDraw" data-dn1="#FAFAFA" data-dn2="#D2D2D2" data-dn3="18" data-dn4="#000000" data-dn5="#B3B3B3" data-dn6="1" data-dn7="1" data-dn8="2" data-dn9="round" data-dn10="round" data-dn11="none" data-dn12="none" data-dn13="none" data-dn14="evenodd" data-dn15="10" data-dn16="1" data-dn17="638" data-dn18="60" data-dn19="10" data-dn20="0" data-dn21="1" data-dn22="1" data-dn23="21" data-dn24="group18,group19" data-dn25="2" data-dn26="url(#linear0)" data-dn27="url(#linear1)" data-dn28="url(#radial0)" data-dn29="url(#radial1)" data-dn30="#FF8000" data-dn31="#FFFF00" data-dn32="#000000" data-dn33="1" data-dn34="1" data-dn35="10" data-dn36="" data-dn37="0" data-dn38="83"></g></svg>