<svg id="exportSVG" visibility="visible" xmlns="http://www.w3.org/2000/svg" xmlns:xlink="http://www.w3.org/1999/xlink" version="1.1" data-info="draw.ninja" data-name="nn" viewBox="0 0 110 130" width="110" height="130" style="position: fixed; top: 0px; left: 0px;"><defs id="defsExport"><filter id="filter0"><feGaussianBlur stdDeviation="0"></feGaussianBlur></filter><pattern id="patternImage" patternUnits="userSpaceOnUse" x="0" y="0" width="1" height="1" data-x="0" data-y="0" data-width="1" data-height="1" data-multx="1" data-multy="1" patternTransform="matrix(1,0,0,1,0,0)" data-transs="0" data-transf="0" data-source="patternImage" data-draw="1" fill="#B3B3B3" fill-opacity="1"></pattern><pattern id="pattern0" patternUnits="userSpaceOnUse" x="0" y="0" width="10" height="10" data-x="0" data-y="0" data-width="10" data-height="10" data-multx="1" data-multy="1" stroke="none" patternTransform="matrix(1,0,0,1,0,0)" data-transs="0" data-transf="0" data-source="Pattern 0" data-draw="1" fill="#B3B3B3" fill-opacity="1"><path transform="matrix(1,0,0,1,0,0)" d="M0 0 L5 0 L5 5 L0 5 L0 0 Z"></path></pattern><pattern id="pattern1" patternUnits="userSpaceOnUse" x="0" y="0" width="10" height="10" data-x="0" data-y="0" data-width="10" data-height="10" data-multx="1" data-multy="1" stroke="none" patternTransform="matrix(1,0,0,1,0,0)" data-transs="0" data-transf="0" data-source="Pattern 1" data-draw="1" fill="#B3B3B3" fill-opacity="1"><path transform="matrix(1,0,0,1,0,0)" d="M0 5 L5 0 L10 5 L5 10 L0 5 Z"></path></pattern><pattern id="pattern2" patternUnits="userSpaceOnUse" x="0" y="0" width="10" height="10" data-x="0" data-y="0" data-width="10" data-height="10" data-multx="1" data-multy="1" stroke="none" patternTransform="matrix(1,0,0,1,0,0)" data-transs="0" data-transf="0" data-source="Pattern 2" data-draw="1" fill="#B3B3B3" fill-opacity="1"><path transform="matrix(1,0,0,1,0,0)" d="M0 9 L5 1 L10 9 L0 9 Z"></path></pattern><pattern id="pattern3" patternUnits="userSpaceOnUse" x="0" y="0" width="10" height="10" data-x="0" data-y="0" data-width="10" data-height="10" data-multx="1" data-multy="1" stroke="none" patternTransform="matrix(1,0,0,1,0,0)" data-transs="0" data-transf="0" data-source="Pattern 3" data-draw="1" fill="#B3B3B3" fill-opacity="1"><path transform="matrix(1,0,0,1,0,0)" d="M0 5 C0 2.25 2.25 0 5 0 C7.75 0 10 2.25 10 5 C10 7.75 7.75 10 5 10 C2.25 10 0 7.75 0 5 Z"></path></pattern><pattern id="pattern4" patternUnits="userSpaceOnUse" x="0" y="0" width="10" height="10" data-x="0" data-y="0" data-width="10" data-height="10" data-multx="1" data-multy="1" stroke="none" patternTransform="matrix(1,0,0,1,0,0)" data-transs="0" data-transf="0" data-source="Pattern 4" data-draw="1" fill="#B3B3B3" fill-opacity="1"><path transform="matrix(1,0,0,1,0,0)" d="M0 5 L4 4 L5 0 L6 4 L10 5 L6 6 L5 10 L4 6 L0 5 Z"></path></pattern><pattern id="pattern5" patternUnits="userSpaceOnUse" x="0" y="0" width="10" height="10" data-x="0" data-y="0" data-width="10" data-height="10" data-multx="1" data-multy="1" stroke="none" patternTransform="matrix(1,0,0,1,0,0)" data-transs="0" data-transf="0" data-source="Pattern 5" data-draw="1" fill="#B3B3B3" fill-opacity="1"><path transform="matrix(1,0,0,1,0,0)" d="M5 10 C-5 2.75 3 -1.75 5 1 C7 -1.75 15 2.75 5 10 Z"></path></pattern><pattern id="pattern6" patternUnits="userSpaceOnUse" x="0" y="0" width="10" height="10" data-x="0" data-y="0" data-width="10" data-height="10" data-multx="1" data-multy="1" stroke="none" patternTransform="matrix(1,0,0,1,0,0)" data-transs="0" data-transf="0" data-source="Pattern 6" data-draw="1" fill="#B3B3B3" fill-opacity="1"><path transform="matrix(1,0,0,1,0,0)" d="M3 0 L7 0 L7 10 L3 10 L3 0 Z"></path></pattern><pattern id="pattern7" patternUnits="userSpaceOnUse" x="0" y="0" width="10" height="10" data-x="0" data-y="0" data-width="10" data-height="10" data-multx="1" data-multy="1" stroke="none" patternTransform="matrix(1,0,0,1,0,0)" data-transs="0" data-transf="0" data-source="Pattern 7" data-draw="1" fill="#B3B3B3" fill-opacity="1"><path transform="matrix(1,0,0,1,0,0)" d="M10 3 L10 7 L0 7 L0 3 L10 3 Z"></path></pattern><pattern id="pattern8" patternUnits="userSpaceOnUse" x="0" y="0" width="10" height="10" data-x="0" data-y="0" data-width="10" data-height="10" data-multx="1" data-multy="1" stroke="none" patternTransform="matrix(1,0,0,1,0,0)" data-transs="0" data-transf="0" data-source="Pattern 8" data-draw="1" fill="#B3B3B3" fill-opacity="1"><path transform="matrix(1,0,0,1,0,0)" d="M0 10 L3 3 L10 0 L7 7 L0 10 Z"></path></pattern><pattern id="pattern9" patternUnits="userSpaceOnUse" x="0" y="0" width="10" height="10" data-x="0" data-y="0" data-width="10" data-height="10" data-multx="1" data-multy="1" stroke="none" patternTransform="matrix(1,0,0,1,0,0)" data-transs="0" data-transf="0" data-source="Pattern 9" data-draw="1" fill="#B3B3B3" fill-opacity="1"><path transform="matrix(1,0,0,1,0,0)" d="M0 4 L10 4 L10 6 L0 6 L0 4 Z M4 10 L4 0 L6 0 L6 10 L4 10 Z"></path></pattern><linearGradient id="linearSystem" gradientUnits="objectBoundingBox" x1="0%" y1="50%" x2="100%" y2="50%" spreadMethod="pad"><stop offset="50%" stop-color="#D0D0D0" stop-opacity="1"></stop><stop offset="100%" stop-color="transparent" stop-opacity="1"></stop></linearGradient><linearGradient id="linearSystem1" gradientUnits="objectBoundingBox" x1="0%" y1="50%" x2="100%" y2="50%" spreadMethod="pad"><stop offset="30%" stop-color="#D0D0D0" stop-opacity="1"></stop><stop offset="100%" stop-color="transparent" stop-opacity="1"></stop></linearGradient><linearGradient id="linearSystem2" gradientUnits="objectBoundingBox" x1="0%" y1="50%" x2="50%" y2="50%" spreadMethod="repeat"><stop offset="30%" stop-color="#D0D0D0" stop-opacity="1"></stop><stop offset="100%" stop-color="transparent" stop-opacity="1"></stop></linearGradient><linearGradient id="linearSystem3" gradientUnits="objectBoundingBox" x1="0%" y1="50%" x2="50%" y2="50%" spreadMethod="reflect"><stop offset="30%" stop-color="#D0D0D0" stop-opacity="1"></stop><stop offset="100%" stop-color="transparent" stop-opacity="1"></stop></linearGradient><radialGradient id="radialSystem" gradientUnits="objectBoundingBox" r="0.5" cx="0.5" fx="0.5" cy="0.5" fy="0.5" spreadMethod="pad"><stop offset="50%" stop-color="#D0D0D0" stop-opacity="1"></stop><stop offset="100%" stop-color="transparent" stop-opacity="1"></stop></radialGradient><pattern id="patternSystem" patternUnits="userSpaceOnUse" x="0" y="0" width="6" height="8"><path stroke="#D0D0D0" stroke-width="5" fill="none" d="M0 0 L0 10"></path></pattern><linearGradient id="linear0" gradientUnits="objectBoundingBox" x1="0%" y1="50%" x2="100%" y2="50%" spreadMethod="pad"><stop offset="0%" stop-color="#FF8000" stop-opacity="1"></stop><stop offset="100%" stop-color="#FFFF00" stop-opacity="1"></stop></linearGradient><linearGradient id="linear1" gradientUnits="objectBoundingBox" x1="0%" y1="50%" x2="100%" y2="50%" spreadMethod="pad"><stop offset="0%" stop-color="#FFFF00" stop-opacity="1"></stop><stop offset="100%" stop-color="#FF8000" stop-opacity="1"></stop></linearGradient><linearGradient id="linearImport" gradientUnits="objectBoundingBox" x1="0%" y1="50%" x2="100%" y2="50%" spreadMethod="pad"><stop offset="0%" stop-color="#FFFFFF" stop-opacity="0.1"></stop><stop offset="100%" stop-color="#000000" stop-opacity="0.1"></stop></linearGradient><radialGradient id="radial0" gradientUnits="objectBoundingBox" r="0.5" cx="0.5" fx="0.5" cy="0.5" fy="0.5" spreadMethod="pad"><stop offset="0%" stop-color="#FF8000" stop-opacity="1"></stop><stop offset="100%" stop-color="#FFFF00" stop-opacity="1"></stop></radialGradient><radialGradient id="radial1" gradientUnits="objectBoundingBox" r="0.5" cx="0.5" fx="0.5" cy="0.5" fy="0.5" spreadMethod="pad"><stop offset="0%" stop-color="#FFFF00" stop-opacity="1"></stop><stop offset="100%" stop-color="#FF8000" stop-opacity="1"></stop></radialGradient><radialGradient id="radialImport" gradientUnits="objectBoundingBox" r="0.5" cx="0.5" fx="0.5" cy="0.5" fy="0.5" spreadMethod="pad"><stop offset="0%" stop-color="#FFFFFF" stop-opacity="0.1"></stop><stop offset="100%" stop-color="#000000" stop-opacity="0.1"></stop></radialGradient></defs><rect id="pageExport" x="0" y="0" width="110" height="130" fill="none" fill-opacity="0" stroke="none" stroke-width="0"></rect><g id="objectsExport" visibility="visible"><path id="path1" d="M29.706 0 C6.872 0 -7.399 26.139 4.018 45.914 C15.435 65.689 43.977 65.689 55.394 45.914 C57.997 41.405 59.368 36.29 59.368 31.083 C59.367 14.701 46.088 1.422 29.706 0 Z M1.406 31.083 C1.405 24.127 3.978 17.417 8.629 12.245 C8.629 12.245 8.629 43.851 8.629 43.851 C8.629 43.851 18.829 43.851 18.829 43.851 C21.651 43.947 24.43 43.136 26.758 41.538 C27.498 41.008 28.132 40.343 28.627 39.58 C28.627 39.58 28.627 57.18 28.627 57.18 C28.627 57.18 38.827 57.18 38.827 57.18 C39.538 57.179 40.248 57.134 40.953 57.044 C22.269 65.147 1.401 51.447 1.408 31.081 C1.408 31.081 1.406 31.083 1.406 31.083 Z M18.242 30.103 C19.811 30.049 21.368 30.406 22.757 31.138 C23.965 31.814 24.674 33.126 24.577 34.507 C24.646 35.836 24.016 37.104 22.916 37.853 C21.629 38.667 20.123 39.067 18.602 38.999 C18.602 38.999 13.885 38.999 13.885 38.999 C13.885 38.999 13.885 30.099 13.885 30.099 C13.885 30.099 18.242 30.103 18.242 30.103 Z M13.885 25.072 L13.885 16.172 C19.146 16.092 20.485 16.472 21.594 17.25 C22.542 18.047 23.051 19.25 22.963 20.486 C23.005 21.684 22.596 22.854 21.818 23.765 C20.936 24.681 19.693 25.157 18.425 25.065 C18.425 25.065 13.885 25.072 13.885 25.072 Z M38.244 43.435 C39.813 43.381 41.37 43.738 42.759 44.47 C43.967 45.146 44.676 46.458 44.579 47.839 C44.648 49.168 44.018 50.436 42.918 51.185 C41.631 51.999 40.125 52.399 38.604 52.331 C38.604 52.331 33.884 52.331 33.884 52.331 C33.884 52.331 33.884 43.431 33.884 43.431 C33.884 43.431 38.244 43.435 38.244 43.435 Z M33.887 38.404 L33.887 29.504 C39.148 29.424 40.487 29.805 41.596 30.583 C42.544 31.38 43.054 32.583 42.965 33.819 C43.007 35.017 42.599 36.187 41.82 37.099 C40.938 38.015 39.695 38.491 38.427 38.399 C38.427 38.399 33.887 38.404 33.887 38.404 Z M49.37 51.411 C49.784 50.25 49.987 49.025 49.97 47.793 C49.997 46.133 49.449 44.514 48.42 43.211 C47.287 41.819 45.807 40.75 44.13 40.111 C45.422 39.416 46.502 38.383 47.253 37.123 C48.014 35.775 48.394 34.245 48.353 32.698 C48.496 30.309 47.434 28.007 45.523 26.566 C43.637 25.173 40.986 24.476 37.571 24.477 C37.571 24.477 28.631 24.477 28.631 24.477 C28.631 24.477 28.631 30.195 28.631 30.195 C28.558 30.095 28.503 29.982 28.423 29.88 C27.29 28.488 25.81 27.419 24.133 26.78 C25.425 26.085 26.505 25.052 27.256 23.792 C28.017 22.444 28.397 20.914 28.356 19.367 C28.499 16.978 27.437 14.676 25.526 13.235 C23.639 11.842 20.989 11.145 17.574 11.146 C17.574 11.146 9.634 11.146 9.634 11.146 C25.001 -4.282 51.306 2.71 56.984 23.732 C59.665 33.657 56.75 44.254 49.371 51.412 C49.371 51.412 49.37 51.411 49.37 51.411 Z " data-centerx="29.68" data-centery="30.37" stroke="none" stroke-width="0" data-sw="0" stroke-opacity="1" stroke-linecap="round" stroke-linejoin="round" fill="#2e5180" fill-opacity="1" fill-rule="evenodd" filter="none" visibility="hidden" stroke-dasharray="none" marker-start="none" marker-end="none" data-name="curve" data-title="curve" deg="0" data-grad="0" data-group="0" data-edit="1"></path><path id="path2" visibility="visible" stroke="#2e5180" stroke-width="4" stroke-opacity="1" stroke-linecap="round" stroke-linejoin="round" stroke-dasharray="none" marker-start="none" marker-end="none" fill="none" fill-rule="evenodd" fill-opacity="1" data-name="curve" data-title="curve" deg="0" data-sw="4" data-grad="0" data-group="0" data-edit="1" filter="none" d="M3.979 67.491 C3.979 36.067 27.81 10.357 56.933 10.357 C86.059 10.357 109.889 36.067 109.889 67.491 C109.889 98.915 86.059 124.626 56.933 124.626 C27.81 124.626 3.979 98.915 3.979 67.491 Z " data-centerx="56.933" data-centery="67.491"></path><g id="group4" visibility="visible" stroke="#000000" stroke-width="NaN" stroke-opacity="1" stroke-dasharray="none" fill="none" fill-opacity="1" data-name="group" data-title="text" deg="0" data-edit="1" data-centerx="56.871" data-centery="67.675"><text id="text5" visibility="visible" font-family="Impact" font-size="18" font-weight="normal" font-style="normal" transform="matrix(2.075,0,0,5.899,-668.486,-443.059)" stroke="none" stroke-width="2" stroke-opacity="1" stroke-dasharray="none" fill="#2e5180" fill-opacity="1" data-name="text" data-title="text" deg="0" data-sw="2" data-group="group4" data-trans="translate(-750,-290) matrix(2.075,0,0,5.899,81.514,-153.059)" data-edit="1" filter="none" x="328" y="93.75" data-centerx="-286.149" data-centery="-173.486">N.E.E.T</text></g></g><g id="settings" visibility="hidden" data-dn0="primalDraw" data-dn1="#FAFAFA" data-dn2="#D2D2D2" data-dn3="18" data-dn4="#000000" data-dn5="none" data-dn6="1" data-dn7="1" data-dn8="2" data-dn9="round" data-dn10="round" data-dn11="none" data-dn12="none" data-dn13="none" data-dn14="evenodd" data-dn15="10" data-dn16="1" data-dn17="110" data-dn18="130" data-dn19="10" data-dn20="0" data-dn21="1" data-dn22="1" data-dn23="11" data-dn24="path1,path2,group4" data-dn25="2" data-dn26="url(#linear0)" data-dn27="url(#linear1)" data-dn28="url(#radial0)" data-dn29="url(#radial1)" data-dn30="#FF8000" data-dn31="#FFFF00" data-dn32="#000000" data-dn33="1" data-dn34="1" data-dn35="10" data-dn36="" data-dn37="0" data-dn38="66"></g></svg>